<?xml version="1.0" encoding="utf-8"?>
<!-- Generator: Adobe Illustrator 26.0.1, SVG Export Plug-In . SVG Version: 6.00 Build 0)  -->
<svg version="1.1" id="Слой_1" xmlns="http://www.w3.org/2000/svg" xmlns:xlink="http://www.w3.org/1999/xlink" x="0px" y="0px"
	 width="500px" height="211.8px" viewBox="0 0 500 211.8" style="enable-background:new 0 0 500 211.8;" xml:space="preserve">
<style type="text/css">
	.st0{fill:#03A4D9;}
</style>
<g id="Icone">
	<path d="M165.8,183.8h9.3c6.6,0,8.3,4.2,8.3,7.3c0.1,3-2,5.6-4.9,6.2c3,0.5,5.2,3.2,5.1,6.3c0,3.1-1.9,7.6-8.5,7.6h-9.4
		L165.8,183.8z M175.2,195.7c2.4,0.2,4.5-1.6,4.7-4c0.2-2.4-1.6-4.5-4-4.7c-0.2,0-0.5,0-0.7,0h-5.8v8.7H175.2z M169.4,198.9v9h6
		c2.4,0.3,4.5-1.4,4.7-3.8c0-0.2,0-0.5,0-0.7c0-2.5-1.9-4.5-4.4-4.5c-0.1,0-0.1,0-0.2,0H169.4z"/>
	<path d="M192.9,211.1H189l5.5-10.8l-10.3-16.5h4.2l8,12.8l6.4-12.8h3.9L192.9,211.1z"/>
	<path d="M222,202.4c-0.2,3.2,2.2,5.9,5.3,6.2c0.3,0,0.6,0,0.8,0c3.1,0,5.4-1.8,5.4-4.6c0-3.3-2.8-4.3-5.2-5c-4.9-1.5-9-2.9-9-8.5
		c0-4.3,3.6-7.3,8.5-7.3c4.5-0.3,8.3,3.1,8.6,7.6c0,0.2,0,0.5,0,0.7h-3.5c0.2-2.6-1.7-4.9-4.3-5.1c-0.2,0-0.4,0-0.6,0
		c-3,0-5,1.5-5,4.1c0,3,2.5,3.9,5.1,4.7c4.2,1.4,9.1,3,9.1,8.3s-4.1,8.2-9.3,8.2c-4.9,0.3-9.2-3.5-9.4-8.5c0-0.3,0-0.5,0-0.8
		L222,202.4z"/>
	<path d="M245.4,187h-7.1v-3.2h17.7v3.2H249v24.1h-3.6V187z"/>
	<path d="M259.6,183.8h3.7v27.3h-3.7V183.8z"/>
	<path d="M285.6,204.9v-21.1h3.6v27.3h-3.9L272.9,190v21.1h-3.5v-27.3h3.9L285.6,204.9z"/>
	<path d="M310.7,198h13.2v3.2H321c-1.1,6.3-5.5,10.6-13.1,10.6c-9,0-14-6.9-14-14.3c-0.2-7.7,5.8-14.1,13.5-14.3c0.2,0,0.4,0,0.6,0
		c6.2,0,10.8,3.7,11.4,8.3h-3.6c-0.7-2.8-3.8-5-7.9-5c-6.5,0-10.4,5.4-10.4,11.1s3.6,11.1,10.8,11.1c4.5,0.3,8.4-2.9,8.9-7.4h-6.4
		L310.7,198z"/>
	<path d="M327.9,183.8h9.6c5.1-0.3,9.5,3.7,9.7,8.8c0.2,4.2-2.4,8-6.4,9.3l5.8,9.3h-4l-5.4-8.7h-5.7v8.7h-3.6V183.8z M343.4,193
		c0.2-3.2-2.3-5.9-5.5-6.1c-0.1,0-0.2,0-0.3,0h-6v12.2h6c3.2,0,5.8-2.5,5.8-5.7C343.4,193.3,343.4,193.2,343.4,193L343.4,193z"/>
	<path d="M366.5,211.1l-1.4-4.2h-11.1l-1.4,4.2h-3.7l9.4-27.3h2.6l9.4,27.3H366.5z M359.6,189.6l-4.6,14.1h8.9L359.6,189.6z"/>
	<path d="M376.9,211.1H373l5.5-10.8l-10.3-16.5h4.2l8,12.8l6.4-12.8h3.9L376.9,211.1z"/>
	<path class="st0" d="M208,156.4c-2.1,9-10.6,16-22,16c-15.2,0-24.4-11.3-24.4-24.4c0-12.6,9-24.2,23.6-24.2c13.8,0,21.3,8,22.8,18
		h-8c-1.1-6.7-7-11.5-13.8-11.2c-10.7,0-16.8,8.3-16.8,17.4c0,9.5,6.3,17.5,17.5,17.5c5.7-0.1,10.8-3.8,12.7-9.3L208,156.4z"/>
	<path class="st0" d="M213,148.1c0-12.6,9.1-24.3,24-24.3s23.9,11.7,23.9,24.3c0,12.6-9.1,24.3-24,24.3S213,160.7,213,148.1z
		 M252.9,148.1c0-9-6.2-17.5-16-17.5s-16,8.5-16,17.5c0,9,6.1,17.5,16,17.5C246.8,165.6,252.9,157.1,252.9,148.1L252.9,148.1z"/>
	<path class="st0" d="M294.9,157.9v-33h7.6v46.3h-8.3l-18.3-33v33h-7.6v-46.3h8.3L294.9,157.9z"/>
	<path class="st0" d="M356.2,156.4c-2.1,9-10.6,16-22,16c-15.2,0-24.4-11.3-24.4-24.4c0-12.6,9-24.2,23.6-24.2
		c13.8,0,21.3,8,22.8,18h-8c-1.1-6.7-7-11.5-13.8-11.2c-10.7,0-16.8,8.3-16.8,17.4c0,9.5,6.3,17.5,17.5,17.5
		c5.7-0.1,10.8-3.8,12.7-9.3L356.2,156.4z"/>
	<path class="st0" d="M371.1,131.8v13.1h19.1v6.8h-19.1v12.8h19.1v6.8h-26.8V125h26.8v6.8L371.1,131.8z"/>
	<path class="st0" d="M399.6,124.9h16.6c9-0.1,16.4,7.2,16.4,16.1c0.1,6.5-3.8,12.5-9.8,15.1l9.3,15.1h-8.8l-8.5-13.9h-7.6v13.9
		h-7.6V124.9z M425,141.2c0-5.1-3.5-9.4-8.7-9.4h-9v18.8h9C421.5,150.6,425,146.3,425,141.2z"/>
	<path class="st0" d="M445.6,131.8h-11.5v-6.8h30.6v6.8h-11.5v39.5h-7.6V131.8z"/>
	<path class="st0" d="M475.8,156.1c0,6,3.8,9.5,9,9.5c4.2,0,7.6-2.7,7.6-6.9c0-4.6-4.2-6.2-7.3-7.3c-8.5-3-15.3-5.6-15.3-14.8
		c0-7.7,6.6-12.7,14.4-12.7c7.8-0.3,14.4,5.7,14.8,13.5c0,0.3,0,0.7,0,1h-7.6c0-4.6-2.7-7.7-7-7.7c-3.8,0-6.9,2-6.9,5.9
		c0,3.9,3.3,5.6,6.7,6.8c7.2,2.6,15.9,5.6,15.9,14.5c0,9.5-7.3,14.6-15.9,14.6s-16-5.9-16-16.3L475.8,156.1z"/>
	<path d="M150,148.1l-20.1-25.5c26.8-30.9,23.6-77.6-7.3-104.5S45-5.4,18.2,25.5s-23.6,77.6,7.3,104.5
		c13.5,11.7,30.8,18.2,48.7,18.2H150z M23.1,74.1C23.1,45.9,46,23,74.2,23c28.2,0,51.1,22.8,51.1,51c0,28.2-22.8,51.1-51,51.1
		c0,0,0,0-0.1,0C46,125,23.2,102.2,23.1,74.1L23.1,74.1z"/>
	<polygon class="st0" points="59.8,48.6 104.1,74.2 59.8,99.7 	"/>
	<path d="M188,50.2c4.2,0,8.4,0.9,12.3,2.6c4,1.7,7.5,4.4,10.3,7.7c2.8,3.6,4.7,7.7,5.8,12.1c0.8,3.2,1.2,6.5,1.2,9.7
		c0,1.5,0,3.2-0.2,5.2c0,1.2-1,2.1-2.2,2.1c-0.1,0-0.1,0-0.2,0h-40.8c1.3,3.3,3.6,6,6.6,7.9c3,2,6.5,3.1,10.1,3.1
		c4.8,0.1,9.5-1.8,12.9-5.2c0.4-0.5,1-0.7,1.6-0.7h0.3c0.7,0.1,1.4,0.5,1.8,1.2l5.3,9c0.2,0.4,0.4,0.8,0.4,1.3c0,0.7-0.4,1.3-1,1.7
		c-6,4.8-13.5,7.4-21.3,7.3c-4.6,0-9.2-0.9-13.4-2.7c-4.1-1.7-7.8-4.2-10.8-7.4c-5.9-6-9.3-14-9.3-22.5c-0.1-7.3,2.3-14.4,6.8-20.2
		c2.7-3.7,6.3-6.7,10.3-8.9C178.6,51.3,183.3,50.2,188,50.2 M174.3,75.8h28.3c-0.6-3-2.1-5.8-4.4-7.9c-3-2.2-6.7-3.3-10.4-3.1
		c-3.1-0.1-6,0.9-8.5,2.8C176.8,69.7,175,72.6,174.3,75.8L174.3,75.8z"/>
	<path d="M225.2,107.5V53.4h-2.4c-1.1,0.2-2.2-0.6-2.3-1.8c0-0.2,0-0.4,0-0.6V41c-0.2-1.1,0.6-2.2,1.7-2.4c0.2,0,0.4,0,0.6,0h10.6
		c1.7,0,3.4,0.7,4.6,1.9c1.2,1.2,1.9,2.9,1.9,4.6v54.1h2.4c1.1-0.2,2.2,0.7,2.3,1.8c0,0.2,0,0.4,0,0.6v10c0.2,1.1-0.6,2.2-1.7,2.3
		c-0.2,0-0.4,0-0.6,0h-10.4c-1.7,0-3.4-0.7-4.6-1.9c-1.3-1.2-2-2.9-1.9-4.6"/>
	<path d="M253.1,107.5V53.4h-2.4c-1.1,0.2-2.2-0.6-2.4-1.8c0-0.2,0-0.4,0-0.6V41c-0.2-1.1,0.6-2.2,1.8-2.4c0.2,0,0.4,0,0.6,0h10.6
		c3.6,0,6.6,3,6.6,6.6v0v54.1h2.3c1.1-0.2,2.2,0.7,2.3,1.8c0,0.2,0,0.4,0,0.6v10c0.2,1.1-0.6,2.2-1.7,2.3c-0.2,0-0.4,0-0.6,0h-10.4
		C256.1,114.2,253.2,111.3,253.1,107.5C253.1,107.6,253.1,107.6,253.1,107.5"/>
	<path d="M309.6,50.2c8.9-0.1,17.4,3.3,23.8,9.6c12.7,12.1,13.2,32.2,1.1,44.9c-0.4,0.4-0.8,0.8-1.2,1.2
		c-13.3,12.6-34.2,12.6-47.5,0c-12.7-12.2-13.1-32.3-1-45c0.3-0.3,0.6-0.7,1-1C292.2,53.6,300.7,50.1,309.6,50.2 M309.6,64.9
		c-4.8,0-9.3,1.8-12.7,5.2c-7,6.8-7.2,17.9-0.5,25c0.2,0.2,0.3,0.3,0.5,0.5c7,7,18.4,7,25.5,0c7-6.7,7.3-17.7,0.7-24.8
		c-0.2-0.2-0.4-0.5-0.7-0.7C319,66.7,314.4,64.9,309.6,64.9L309.6,64.9z"/>
</g>
</svg>
